<svg xmlns="http://www.w3.org/2000/svg" xmlns:xlink="http://www.w3.org/1999/xlink" width="500" zoomAndPan="magnify" viewBox="0 0 375 374.999991" height="500" preserveAspectRatio="xMidYMid meet" version="1.0"><defs><g/><clipPath id="a2bcb373b1"><path d="M 88.488281 89.699219 L 238 89.699219 L 238 271.199219 L 88.488281 271.199219 Z M 88.488281 89.699219 " clip-rule="nonzero"/></clipPath><clipPath id="88cfa0e43f"><path d="M 150 107 L 269.238281 107 L 269.238281 253 L 150 253 Z M 150 107 " clip-rule="nonzero"/></clipPath><clipPath id="009c44c921"><path d="M 81.003906 165.042969 L 277.007812 165.042969 L 277.007812 218.945312 L 81.003906 218.945312 Z M 81.003906 165.042969 " clip-rule="nonzero"/></clipPath></defs><g clip-path="url(#a2bcb373b1)"><path fill="#f68712" d="M 197.859375 260.476562 C 153.652344 260.476562 117.820312 224.640625 117.820312 180.4375 C 117.820312 136.234375 153.652344 100.398438 197.859375 100.398438 C 212.203125 100.398438 225.652344 104.191406 237.296875 110.800781 C 221.554688 97.648438 201.296875 89.726562 179.183594 89.726562 C 129.085938 89.726562 88.472656 130.339844 88.472656 180.4375 C 88.472656 230.535156 129.085938 271.148438 179.183594 271.148438 C 201.296875 271.148438 221.554688 263.226562 237.296875 250.074219 C 225.652344 256.683594 212.203125 260.476562 197.859375 260.476562 " fill-opacity="1" fill-rule="nonzero"/></g><g clip-path="url(#88cfa0e43f)"><path fill="#56be37" d="M 182.128906 244.355469 C 217.429688 244.355469 246.050781 215.738281 246.050781 180.4375 C 246.050781 145.136719 217.429688 116.519531 182.128906 116.519531 C 170.675781 116.519531 159.933594 119.550781 150.636719 124.824219 C 163.207031 114.324219 179.382812 107.996094 197.046875 107.996094 C 237.054688 107.996094 269.484375 140.429688 269.484375 180.4375 C 269.484375 220.445312 237.054688 252.878906 197.046875 252.878906 C 179.382812 252.878906 163.207031 246.550781 150.636719 236.050781 C 159.933594 241.328125 170.675781 244.355469 182.128906 244.355469 " fill-opacity="1" fill-rule="nonzero"/></g><g clip-path="url(#009c44c921)"><path fill="#ffffff" d="M 81.003906 165.042969 L 277.03125 165.042969 L 277.03125 218.945312 L 81.003906 218.945312 Z M 81.003906 165.042969 " fill-opacity="1" fill-rule="nonzero"/></g><g fill="#163b6d" fill-opacity="1"><g transform="translate(70.408197, 196.802599)"><g><path d="M 1.8125 -3.375 C 1.8125 -5.113281 2.1875 -6.601562 2.9375 -7.84375 L 3.265625 -7.84375 C 3.242188 -7.644531 3.234375 -7.445312 3.234375 -7.25 C 3.234375 -5.582031 3.832031 -4.125 5.03125 -2.875 C 6.226562 -1.632812 7.863281 -1.015625 9.9375 -1.015625 C 11.5625 -1.015625 12.828125 -1.398438 13.734375 -2.171875 C 14.640625 -2.953125 15.09375 -3.929688 15.09375 -5.109375 C 15.09375 -5.816406 14.867188 -6.445312 14.421875 -7 C 13.972656 -7.5625 13.226562 -8.179688 12.1875 -8.859375 L 5.875 -13.03125 C 3.53125 -14.601562 2.359375 -16.535156 2.359375 -18.828125 C 2.359375 -19.066406 2.382812 -19.3125 2.4375 -19.5625 C 2.582031 -21.46875 3.320312 -23 4.65625 -24.15625 C 6 -25.320312 7.796875 -25.90625 10.046875 -25.90625 C 11.378906 -25.90625 13.023438 -25.785156 14.984375 -25.546875 L 17.265625 -25.546875 L 16.796875 -20.203125 L 16.4375 -20.203125 C 16.4375 -21.460938 15.96875 -22.472656 15.03125 -23.234375 C 14.101562 -23.992188 12.863281 -24.375 11.3125 -24.375 C 9.425781 -24.375 8.0625 -23.796875 7.21875 -22.640625 C 6.78125 -22.085938 6.5625 -21.53125 6.5625 -20.96875 C 6.5625 -20.414062 6.671875 -19.945312 6.890625 -19.5625 C 7.234375 -18.925781 7.972656 -18.25 9.109375 -17.53125 L 16.03125 -13.03125 C 18.207031 -11.601562 19.296875 -9.738281 19.296875 -7.4375 C 19.296875 -4.875 18.421875 -2.90625 16.671875 -1.53125 C 14.921875 -0.164062 12.59375 0.515625 9.6875 0.515625 C 8.039062 0.515625 6.519531 0.316406 5.125 -0.078125 C 3.738281 -0.484375 2.71875 -1.023438 2.0625 -1.703125 C 1.894531 -2.160156 1.8125 -2.71875 1.8125 -3.375 Z M 1.8125 -3.375 "/></g></g></g><g fill="#163b6d" fill-opacity="1"><g transform="translate(91.380071, 196.802599)"><g><path d="M 28.65625 -25.03125 L 28.046875 -25.03125 C 27.535156 -25.03125 27.097656 -24.863281 26.734375 -24.53125 C 26.367188 -24.207031 26.175781 -23.804688 26.15625 -23.328125 L 26.15625 -9.171875 C 26.15625 -6.203125 25.222656 -3.84375 23.359375 -2.09375 C 21.503906 -0.351562 18.953125 0.515625 15.703125 0.515625 C 11.890625 0.515625 8.960938 -0.335938 6.921875 -2.046875 C 4.890625 -3.753906 3.875 -6.117188 3.875 -9.140625 L 3.875 -23.21875 C 3.851562 -23.945312 3.53125 -24.476562 2.90625 -24.8125 C 2.613281 -24.957031 2.296875 -25.03125 1.953125 -25.03125 L 1.375 -25.03125 L 1.375 -25.390625 L 11.828125 -25.390625 L 11.828125 -25.03125 L 11.25 -25.03125 C 10.71875 -25.03125 10.269531 -24.863281 9.90625 -24.53125 C 9.539062 -24.207031 9.347656 -23.796875 9.328125 -23.296875 L 9.328125 -9.4375 C 9.328125 -6.875 9.953125 -4.84375 11.203125 -3.34375 C 12.460938 -1.84375 14.191406 -1.09375 16.390625 -1.09375 C 18.597656 -1.09375 20.34375 -1.796875 21.625 -3.203125 C 22.90625 -4.617188 23.554688 -6.539062 23.578125 -8.96875 L 23.578125 -23.296875 C 23.535156 -23.992188 23.210938 -24.5 22.609375 -24.8125 C 22.316406 -24.957031 22 -25.03125 21.65625 -25.03125 L 21.078125 -25.03125 L 21.078125 -25.390625 L 28.65625 -25.390625 Z M 28.65625 -25.03125 "/></g></g></g><g fill="#163b6d" fill-opacity="1"><g transform="translate(121.168833, 196.802599)"><g><path d="M 29.640625 -25.03125 C 28.796875 -25.03125 28.15625 -24.671875 27.71875 -23.953125 C 27.519531 -23.628906 27.410156 -23.265625 27.390625 -22.859375 L 27.390625 -4.140625 C 27.390625 -2.515625 27.5 -1.144531 27.71875 -0.03125 L 27.828125 0.515625 L 27.5 0.515625 L 9.171875 -16.9375 L 9.171875 -2.546875 C 9.171875 -1.929688 9.390625 -1.410156 9.828125 -0.984375 C 10.265625 -0.566406 10.785156 -0.359375 11.390625 -0.359375 L 12.078125 -0.359375 L 12.078125 0 L 1.09375 0 L 1.09375 -0.359375 L 1.734375 -0.359375 C 2.367188 -0.359375 2.898438 -0.566406 3.328125 -0.984375 C 3.765625 -1.410156 3.984375 -1.941406 3.984375 -2.578125 L 3.984375 -21.40625 C 3.984375 -23 3.878906 -24.328125 3.671875 -25.390625 L 3.59375 -25.9375 L 3.921875 -25.9375 L 22.234375 -8.484375 L 22.234375 -22.828125 C 22.210938 -23.453125 21.984375 -23.972656 21.546875 -24.390625 C 21.109375 -24.816406 20.585938 -25.03125 19.984375 -25.03125 L 19.34375 -25.03125 L 19.34375 -25.390625 L 30.328125 -25.390625 L 30.328125 -25.03125 Z M 29.640625 -25.03125 "/></g></g></g><g fill="#163b6d" fill-opacity="1"><g transform="translate(152.554075, 196.802599)"><g><path d="M 29.640625 -25.03125 C 28.796875 -25.03125 28.15625 -24.671875 27.71875 -23.953125 C 27.519531 -23.628906 27.410156 -23.265625 27.390625 -22.859375 L 27.390625 -4.140625 C 27.390625 -2.515625 27.5 -1.144531 27.71875 -0.03125 L 27.828125 0.515625 L 27.5 0.515625 L 9.171875 -16.9375 L 9.171875 -2.546875 C 9.171875 -1.929688 9.390625 -1.410156 9.828125 -0.984375 C 10.265625 -0.566406 10.785156 -0.359375 11.390625 -0.359375 L 12.078125 -0.359375 L 12.078125 0 L 1.09375 0 L 1.09375 -0.359375 L 1.734375 -0.359375 C 2.367188 -0.359375 2.898438 -0.566406 3.328125 -0.984375 C 3.765625 -1.410156 3.984375 -1.941406 3.984375 -2.578125 L 3.984375 -21.40625 C 3.984375 -23 3.878906 -24.328125 3.671875 -25.390625 L 3.59375 -25.9375 L 3.921875 -25.9375 L 22.234375 -8.484375 L 22.234375 -22.828125 C 22.210938 -23.453125 21.984375 -23.972656 21.546875 -24.390625 C 21.109375 -24.816406 20.585938 -25.03125 19.984375 -25.03125 L 19.34375 -25.03125 L 19.34375 -25.390625 L 30.328125 -25.390625 L 30.328125 -25.03125 Z M 29.640625 -25.03125 "/></g></g></g><g fill="#163b6d" fill-opacity="1"><g transform="translate(183.939317, 196.802599)"><g><path d="M 2 -0.359375 C 2.625 -0.359375 3.160156 -0.582031 3.609375 -1.03125 C 4.054688 -1.476562 4.289062 -2.019531 4.3125 -2.65625 L 4.3125 -22.859375 C 4.269531 -23.484375 4.085938 -23.941406 3.765625 -24.234375 C 3.191406 -24.765625 2.601562 -25.03125 2 -25.03125 L 1.53125 -25.03125 L 1.53125 -25.390625 L 15.421875 -25.390625 C 16.609375 -25.390625 17.585938 -25.476562 18.359375 -25.65625 C 19.128906 -25.84375 19.597656 -25.972656 19.765625 -26.046875 L 19.765625 -19.703125 L 19.40625 -19.734375 L 19.40625 -20.140625 C 19.40625 -21.640625 18.847656 -22.703125 17.734375 -23.328125 C 17.203125 -23.640625 16.578125 -23.8125 15.859375 -23.84375 L 9.765625 -23.84375 L 9.765625 -13.28125 L 14.546875 -13.28125 C 15.441406 -13.300781 16.175781 -13.609375 16.75 -14.203125 C 17.332031 -14.796875 17.625 -15.53125 17.625 -16.40625 L 17.625 -16.71875 L 18 -16.71875 L 18 -8.34375 L 17.625 -8.34375 L 17.625 -8.640625 C 17.625 -9.535156 17.335938 -10.269531 16.765625 -10.84375 C 16.203125 -11.425781 15.488281 -11.726562 14.625 -11.75 L 9.765625 -11.75 L 9.765625 -1.5625 L 14.515625 -1.5625 C 16.273438 -1.5625 17.753906 -2.066406 18.953125 -3.078125 C 20.148438 -4.097656 21.039062 -5.539062 21.625 -7.40625 L 21.984375 -7.40625 L 20.3125 0 L 1.53125 0 L 1.53125 -0.359375 Z M 2 -0.359375 "/></g></g></g><g fill="#163b6d" fill-opacity="1"><g transform="translate(206.834212, 196.802599)"><g><path d="M 19.703125 -25.390625 L 27.453125 -25.390625 L 27.453125 -25.03125 L 27.140625 -25.03125 C 26.578125 -25.03125 26.015625 -24.859375 25.453125 -24.515625 C 24.898438 -24.179688 24.441406 -23.675781 24.078125 -23 L 15.484375 -4.03125 C 14.367188 -1.632812 13.773438 -0.0507812 13.703125 0.71875 L 13.375 0.71875 L 2.390625 -22.96875 C 2.023438 -23.644531 1.5625 -24.15625 1 -24.5 C 0.445312 -24.851562 -0.113281 -25.03125 -0.6875 -25.03125 L -0.984375 -25.03125 L -0.984375 -25.390625 L 10.546875 -25.390625 L 10.546875 -25.03125 L 10.265625 -25.03125 C 9.734375 -25.03125 9.335938 -24.863281 9.078125 -24.53125 C 8.828125 -24.207031 8.703125 -23.898438 8.703125 -23.609375 C 8.703125 -23.328125 8.75 -23.039062 8.84375 -22.75 L 15.015625 -7.765625 L 21.40625 -22.75 C 21.519531 -23.0625 21.578125 -23.351562 21.578125 -23.625 C 21.578125 -23.90625 21.453125 -24.207031 21.203125 -24.53125 C 20.953125 -24.863281 20.554688 -25.03125 20.015625 -25.03125 L 19.703125 -25.03125 Z M 19.703125 -25.390625 "/></g></g></g><g fill="#163b6d" fill-opacity="1"><g transform="translate(233.212332, 196.802599)"><g><path d="M 2 -0.359375 C 2.625 -0.359375 3.160156 -0.582031 3.609375 -1.03125 C 4.054688 -1.476562 4.289062 -2.019531 4.3125 -2.65625 L 4.3125 -22.78125 C 4.289062 -23.414062 4.054688 -23.945312 3.609375 -24.375 C 3.160156 -24.8125 2.625 -25.03125 2 -25.03125 L 1.53125 -25.03125 L 1.53125 -25.390625 L 12.546875 -25.390625 L 12.515625 -25.03125 L 12.078125 -25.03125 C 11.453125 -25.03125 10.910156 -24.8125 10.453125 -24.375 C 9.992188 -23.945312 9.765625 -23.414062 9.765625 -22.78125 L 9.765625 -2.65625 C 9.765625 -2.019531 9.992188 -1.476562 10.453125 -1.03125 C 10.910156 -0.582031 11.453125 -0.359375 12.078125 -0.359375 L 12.515625 -0.359375 L 12.546875 0 L 1.53125 0 L 1.53125 -0.359375 Z M 2 -0.359375 "/></g></g></g><g fill="#163b6d" fill-opacity="1"><g transform="translate(247.217771, 196.802599)"><g><path d="M 26.765625 -0.359375 L 27.09375 -0.359375 L 27.09375 0 L 15.515625 0 L 15.515625 -0.359375 L 15.84375 -0.359375 C 16.375 -0.359375 16.765625 -0.519531 17.015625 -0.84375 C 17.273438 -1.175781 17.40625 -1.488281 17.40625 -1.78125 C 17.40625 -2.070312 17.347656 -2.363281 17.234375 -2.65625 L 15.453125 -7.109375 L 6.96875 -7.109375 L 5.078125 -2.65625 C 4.953125 -2.332031 4.890625 -2.03125 4.890625 -1.75 C 4.890625 -1.476562 5.019531 -1.175781 5.28125 -0.84375 C 5.550781 -0.519531 5.953125 -0.359375 6.484375 -0.359375 L 6.78125 -0.359375 L 6.78125 0 L -0.984375 0 L -0.984375 -0.359375 L -0.65625 -0.359375 C -0.101562 -0.359375 0.445312 -0.523438 1 -0.859375 C 1.5625 -1.203125 2.023438 -1.710938 2.390625 -2.390625 L 10.765625 -21.375 C 11.898438 -23.769531 12.503906 -25.351562 12.578125 -26.125 L 12.90625 -26.125 L 23.6875 -2.46875 C 24.050781 -1.769531 24.507812 -1.242188 25.0625 -0.890625 C 25.625 -0.535156 26.191406 -0.359375 26.765625 -0.359375 Z M 7.578125 -8.640625 L 14.828125 -8.640625 L 11.3125 -17.5625 Z M 7.578125 -8.640625 "/></g></g></g><g fill="#163b6d" fill-opacity="1"><g transform="translate(273.196767, 196.802599)"><g><path d="M 29.640625 -25.03125 C 28.796875 -25.03125 28.15625 -24.671875 27.71875 -23.953125 C 27.519531 -23.628906 27.410156 -23.265625 27.390625 -22.859375 L 27.390625 -4.140625 C 27.390625 -2.515625 27.5 -1.144531 27.71875 -0.03125 L 27.828125 0.515625 L 27.5 0.515625 L 9.171875 -16.9375 L 9.171875 -2.546875 C 9.171875 -1.929688 9.390625 -1.410156 9.828125 -0.984375 C 10.265625 -0.566406 10.785156 -0.359375 11.390625 -0.359375 L 12.078125 -0.359375 L 12.078125 0 L 1.09375 0 L 1.09375 -0.359375 L 1.734375 -0.359375 C 2.367188 -0.359375 2.898438 -0.566406 3.328125 -0.984375 C 3.765625 -1.410156 3.984375 -1.941406 3.984375 -2.578125 L 3.984375 -21.40625 C 3.984375 -23 3.878906 -24.328125 3.671875 -25.390625 L 3.59375 -25.9375 L 3.921875 -25.9375 L 22.234375 -8.484375 L 22.234375 -22.828125 C 22.210938 -23.453125 21.984375 -23.972656 21.546875 -24.390625 C 21.109375 -24.816406 20.585938 -25.03125 19.984375 -25.03125 L 19.34375 -25.03125 L 19.34375 -25.390625 L 30.328125 -25.390625 L 30.328125 -25.03125 Z M 29.640625 -25.03125 "/></g></g></g><g fill="#4f4c4c" fill-opacity="1"><g transform="translate(110.575991, 214.553789)"><g><path d="M 8.4375 -11.1875 L 8.4375 -9.6875 L 5.453125 -9.6875 L 5.453125 0 L 3.625 0 L 3.625 -9.6875 L 0.625 -9.6875 L 0.625 -11.1875 Z M 8.4375 -11.1875 "/></g></g></g><g fill="#4f4c4c" fill-opacity="1"><g transform="translate(122.902697, 214.553789)"><g><path d="M 3.046875 -9.703125 L 3.046875 -6.421875 L 6.90625 -6.421875 L 6.90625 -4.921875 L 3.046875 -4.921875 L 3.046875 -1.5 L 7.390625 -1.5 L 7.390625 0 L 1.203125 0 L 1.203125 -11.203125 L 7.390625 -11.203125 L 7.390625 -9.703125 Z M 3.046875 -9.703125 "/></g></g></g><g fill="#4f4c4c" fill-opacity="1"><g transform="translate(134.5858, 214.553789)"><g><path d="M 0.59375 -5.609375 C 0.59375 -6.710938 0.847656 -7.695312 1.359375 -8.5625 C 1.867188 -9.425781 2.5625 -10.101562 3.4375 -10.59375 C 4.3125 -11.082031 5.269531 -11.328125 6.3125 -11.328125 C 7.5 -11.328125 8.554688 -11.035156 9.484375 -10.453125 C 10.410156 -9.867188 11.082031 -9.039062 11.5 -7.96875 L 9.296875 -7.96875 C 9.015625 -8.550781 8.613281 -8.988281 8.09375 -9.28125 C 7.582031 -9.570312 6.988281 -9.71875 6.3125 -9.71875 C 5.570312 -9.71875 4.910156 -9.550781 4.328125 -9.21875 C 3.742188 -8.882812 3.289062 -8.40625 2.96875 -7.78125 C 2.644531 -7.164062 2.484375 -6.441406 2.484375 -5.609375 C 2.484375 -4.785156 2.644531 -4.0625 2.96875 -3.4375 C 3.289062 -2.820312 3.742188 -2.34375 4.328125 -2 C 4.910156 -1.664062 5.570312 -1.5 6.3125 -1.5 C 6.988281 -1.5 7.582031 -1.640625 8.09375 -1.921875 C 8.613281 -2.210938 9.015625 -2.65625 9.296875 -3.25 L 11.5 -3.25 C 11.082031 -2.175781 10.410156 -1.347656 9.484375 -0.765625 C 8.554688 -0.191406 7.5 0.09375 6.3125 0.09375 C 5.257812 0.09375 4.296875 -0.148438 3.421875 -0.640625 C 2.554688 -1.128906 1.867188 -1.804688 1.359375 -2.671875 C 0.847656 -3.535156 0.59375 -4.515625 0.59375 -5.609375 Z M 0.59375 -5.609375 "/></g></g></g><g fill="#4f4c4c" fill-opacity="1"><g transform="translate(150.275285, 214.553789)"><g><path d="M 10.140625 -11.1875 L 10.140625 0 L 8.296875 0 L 8.296875 -4.890625 L 3.046875 -4.890625 L 3.046875 0 L 1.203125 0 L 1.203125 -11.1875 L 3.046875 -11.1875 L 3.046875 -6.390625 L 8.296875 -6.390625 L 8.296875 -11.1875 Z M 10.140625 -11.1875 "/></g></g></g><g fill="#4f4c4c" fill-opacity="1"><g transform="translate(164.870655, 214.553789)"><g><path d="M 0.59375 -5.609375 C 0.59375 -6.710938 0.847656 -7.695312 1.359375 -8.5625 C 1.867188 -9.425781 2.5625 -10.101562 3.4375 -10.59375 C 4.3125 -11.082031 5.269531 -11.328125 6.3125 -11.328125 C 7.5 -11.328125 8.554688 -11.035156 9.484375 -10.453125 C 10.410156 -9.867188 11.082031 -9.039062 11.5 -7.96875 L 9.296875 -7.96875 C 9.015625 -8.550781 8.613281 -8.988281 8.09375 -9.28125 C 7.582031 -9.570312 6.988281 -9.71875 6.3125 -9.71875 C 5.570312 -9.71875 4.910156 -9.550781 4.328125 -9.21875 C 3.742188 -8.882812 3.289062 -8.40625 2.96875 -7.78125 C 2.644531 -7.164062 2.484375 -6.441406 2.484375 -5.609375 C 2.484375 -4.785156 2.644531 -4.0625 2.96875 -3.4375 C 3.289062 -2.820312 3.742188 -2.34375 4.328125 -2 C 4.910156 -1.664062 5.570312 -1.5 6.3125 -1.5 C 6.988281 -1.5 7.582031 -1.640625 8.09375 -1.921875 C 8.613281 -2.210938 9.015625 -2.65625 9.296875 -3.25 L 11.5 -3.25 C 11.082031 -2.175781 10.410156 -1.347656 9.484375 -0.765625 C 8.554688 -0.191406 7.5 0.09375 6.3125 0.09375 C 5.257812 0.09375 4.296875 -0.148438 3.421875 -0.640625 C 2.554688 -1.128906 1.867188 -1.804688 1.359375 -2.671875 C 0.847656 -3.535156 0.59375 -4.515625 0.59375 -5.609375 Z M 0.59375 -5.609375 "/></g></g></g><g fill="#4f4c4c" fill-opacity="1"><g transform="translate(180.560138, 214.553789)"><g><path d="M 6.3125 0.109375 C 5.269531 0.109375 4.3125 -0.132812 3.4375 -0.625 C 2.5625 -1.113281 1.867188 -1.789062 1.359375 -2.65625 C 0.847656 -3.53125 0.59375 -4.515625 0.59375 -5.609375 C 0.59375 -6.710938 0.847656 -7.695312 1.359375 -8.5625 C 1.867188 -9.425781 2.5625 -10.101562 3.4375 -10.59375 C 4.3125 -11.082031 5.269531 -11.328125 6.3125 -11.328125 C 7.363281 -11.328125 8.328125 -11.082031 9.203125 -10.59375 C 10.078125 -10.101562 10.765625 -9.425781 11.265625 -8.5625 C 11.765625 -7.695312 12.015625 -6.710938 12.015625 -5.609375 C 12.015625 -4.515625 11.765625 -3.53125 11.265625 -2.65625 C 10.765625 -1.789062 10.078125 -1.113281 9.203125 -0.625 C 8.328125 -0.132812 7.363281 0.109375 6.3125 0.109375 Z M 6.3125 -1.484375 C 7.050781 -1.484375 7.707031 -1.648438 8.28125 -1.984375 C 8.863281 -2.328125 9.316406 -2.8125 9.640625 -3.4375 C 9.972656 -4.0625 10.140625 -4.785156 10.140625 -5.609375 C 10.140625 -6.441406 9.972656 -7.164062 9.640625 -7.78125 C 9.316406 -8.40625 8.863281 -8.882812 8.28125 -9.21875 C 7.707031 -9.550781 7.050781 -9.71875 6.3125 -9.71875 C 5.570312 -9.71875 4.910156 -9.550781 4.328125 -9.21875 C 3.742188 -8.882812 3.289062 -8.40625 2.96875 -7.78125 C 2.644531 -7.164062 2.484375 -6.441406 2.484375 -5.609375 C 2.484375 -4.785156 2.644531 -4.0625 2.96875 -3.4375 C 3.289062 -2.8125 3.742188 -2.328125 4.328125 -1.984375 C 4.910156 -1.648438 5.570312 -1.484375 6.3125 -1.484375 Z M 6.3125 -1.484375 "/></g></g></g><g fill="#4f4c4c" fill-opacity="1"><g transform="translate(196.426604, 214.553789)"><g><path d="M 12.984375 -11.1875 L 12.984375 0 L 11.15625 0 L 11.15625 -7.65625 L 7.734375 0 L 6.46875 0 L 3.046875 -7.65625 L 3.046875 0 L 1.203125 0 L 1.203125 -11.1875 L 3.1875 -11.1875 L 7.109375 -2.40625 L 11.03125 -11.1875 Z M 12.984375 -11.1875 "/></g></g></g><g fill="#4f4c4c" fill-opacity="1"><g transform="translate(213.869887, 214.553789)"><g><path d="M 9.03125 -7.859375 C 9.03125 -7.285156 8.894531 -6.742188 8.625 -6.234375 C 8.351562 -5.734375 7.921875 -5.320312 7.328125 -5 C 6.742188 -4.6875 5.988281 -4.53125 5.0625 -4.53125 L 3.046875 -4.53125 L 3.046875 0 L 1.203125 0 L 1.203125 -11.1875 L 5.0625 -11.1875 C 5.925781 -11.1875 6.65625 -11.035156 7.25 -10.734375 C 7.84375 -10.441406 8.285156 -10.039062 8.578125 -9.53125 C 8.878906 -9.03125 9.03125 -8.472656 9.03125 -7.859375 Z M 5.0625 -6.03125 C 5.757812 -6.03125 6.28125 -6.1875 6.625 -6.5 C 6.96875 -6.820312 7.140625 -7.273438 7.140625 -7.859375 C 7.140625 -9.078125 6.445312 -9.6875 5.0625 -9.6875 L 3.046875 -9.6875 L 3.046875 -6.03125 Z M 5.0625 -6.03125 "/></g></g></g><g fill="#4f4c4c" fill-opacity="1"><g transform="translate(226.695372, 214.553789)"><g><path d="M 7.953125 -2.28125 L 3.265625 -2.28125 L 2.46875 0 L 0.546875 0 L 4.546875 -11.203125 L 6.671875 -11.203125 L 10.6875 0 L 8.75 0 Z M 7.4375 -3.78125 L 5.609375 -8.984375 L 3.78125 -3.78125 Z M 7.4375 -3.78125 "/></g></g></g><g fill="#4f4c4c" fill-opacity="1"><g transform="translate(241.162019, 214.553789)"><g><path d="M 10.390625 0 L 8.5625 0 L 3.046875 -8.359375 L 3.046875 0 L 1.203125 0 L 1.203125 -11.203125 L 3.046875 -11.203125 L 8.5625 -2.859375 L 8.5625 -11.203125 L 10.390625 -11.203125 Z M 10.390625 0 "/></g></g></g><g fill="#4f4c4c" fill-opacity="1"><g transform="translate(256.014824, 214.553789)"><g><path d="M 9.5 -11.1875 L 5.796875 -4.0625 L 5.796875 0 L 3.953125 0 L 3.953125 -4.0625 L 0.234375 -11.1875 L 2.28125 -11.1875 L 4.875 -5.703125 L 7.46875 -11.1875 Z M 9.5 -11.1875 "/></g></g></g></svg>